inDegrees=yes
name=ik_S57_A09_T01
DataType=double
version=3
OpenSimVersion=4.3-2021-08-27-4bc7ad9
endheader
time	pelvis_tilt	pelvis_list	pelvis_rotation	pelvis_tx	pelvis_ty	pelvis_tz	hip_flexion_r	hip_adduction_r	hip_rotation_r	knee_angle_r	knee_angle_r_beta	ankle_angle_r	subtalar_angle_r	mtp_angle_r	hip_flexion_l	hip_adduction_l	hip_rotation_l	knee_angle_l	knee_angle_l_beta	ankle_angle_l	subtalar_angle_l	mtp_angle_l	lumbar_extension	lumbar_bending	lumbar_rotation	arm_flex_r	arm_add_r	arm_rot_r	elbow_flex_r	pro_sup_r	wrist_flex_r	wrist_dev_r	arm_flex_l	arm_add_l	arm_rot_l	elbow_flex_l	pro_sup_l	wrist_flex_l	wrist_dev_l
29.69999999999946	-5.697062136209279	-6.588415720654609	29.1083991005266	0	0.9399999999999999	0	42.68054781887535	-10.19597829975452	-10.08339946876916	54.85161416119465	0.9573412671463942	0	0	0	42.68054781887535	-10.19597829975452	-10.08339946876916	54.85161416119465	0.9573412671463942	0	0	0	-7.58244772453738	-5.162798204299879	2.055383952805734	52.19352287523654	2.2490213599435	-3.569657977826982	53.4737389946168	103.2106392587608	0	0	55.08180950716152	-20.59842823481035	31.17811747680717	61.4360433849702	93.95858905054496	0	0
29.71999999999946	-5.696543285001876	-6.59171159478446	29.01769150332348	0	0.9399999999999999	0	42.68123908849829	-10.19577560319972	-10.08334403508911	54.8516439251207	0.9573417866249021	0	0	0	42.68123908849829	-10.19577560319972	-10.08334403508911	54.8516439251207	0.9573417866249021	0	0	0	-7.582742988616786	-5.167374524008582	2.065617401009043	52.23604964240648	2.287314576920517	-3.562739642649806	53.44512123852691	103.2194894822792	0	0	55.48534906419712	-20.79288919138466	31.54351713190801	61.30636542591616	93.36298007151758	0	0
29.73999999999945	-5.690492395420764	-6.587530714307272	28.98525834210283	0	0.9399999999999999	0	42.68887457634332	-10.19365318566276	-10.08274876184572	54.85197337692801	0.9573475366436663	0	0	0	42.68887457634332	-10.19365318566276	-10.08274876184572	54.85197337692801	0.9573475366436663	0	0	0	-7.577955217461863	-5.159596610029682	2.050694859906027	52.22580584404911	2.294294335755978	-3.470778159270703	53.49155542720011	103.2156384498606	0	0	55.46423532571964	-20.79607641042734	31.51198503717371	61.36911819012136	93.26126498492306	0	0
29.75999999999945	-5.698165824419719	-6.58833365049846	28.89712211006592	0	0.9399999999999999	0	42.68996627388923	-10.1933352850096	-10.08266150372012	54.85202036943831	0.957348356817695	0	0	0	42.68996627388923	-10.1933352850096	-10.08266150372012	54.85202036943831	0.957348356817695	0	0	0	-7.58417092750771	-5.157997311086208	2.062096946133193	52.27629376926144	2.320900830927842	-3.37711696900689	53.48563722955651	103.3309888386798	0	0	55.90481594782416	-20.99343536271414	31.90174457197043	61.12855436812471	92.7213486225467	0	0
29.77999999999945	-5.692938377167134	-6.582217429830028	28.84257900829533	0	0.9399999999999999	0	42.70318220740714	-10.1901878484519	-10.08170860895252	54.85260339983789	0.9573585326178068	0	0	0	42.70318220740714	-10.1901878484519	-10.08170860895252	54.85260339983789	0.9573585326178068	0	0	0	-7.578871174734961	-5.146346790696576	2.055881375292071	52.2816446289216	2.359296907465247	-3.340653815170907	53.46126608886377	102.9372642920554	0	0	55.87328569470962	-21.0367661257614	31.83784116086194	61.14443733312791	92.72421727508237	0	0
29.79999999999945	-5.705627053101196	-6.580461388451691	28.71177051497743	0	0.9399999999999999	0	42.70425991967507	-10.18987669553341	-10.08162283537055	54.85264973879413	0.9573593413851652	0	0	0	42.70425991967507	-10.18987669553341	-10.08162283537055	54.85264973879413	0.9573593413851652	0	0	0	-7.58509899681426	-5.146002664215189	2.098937278233235	52.32526096468361	2.418204821864857	-3.264322562942169	53.44216714336368	102.797163992414	0	0	56.61998339982107	-21.01827722480408	32.47766277443271	60.53267521570986	92.10944235218979	0	0
29.81999999999945	-5.705349671450615	-6.584386009259955	28.71642143726921	0	0.9399999999999999	0	42.70559852945561	-10.18949605954279	-10.08151734826172	54.85270808033165	0.9573603596370854	0	0	0	42.70559852945561	-10.18949605954279	-10.08151734826172	54.85270808033165	0.9573603596370854	0	0	0	-7.593166228960284	-5.137969931052059	2.041806557835547	52.29054879167956	2.499405906724252	-3.219179769262184	53.56099601233367	102.8239628421119	0	0	57.01195452622902	-21.06640788616522	32.41005118081539	60.51570598893978	89.11594259558382	0	0
29.83999999999945	-5.705335908109291	-6.592531885162831	28.76522979875694	0	0.9399999999999999	0	42.70614915285255	-10.18933838149564	-10.08147374601283	54.85273189730714	0.9573607753217258	0	0	0	42.70614915285255	-10.18933838149564	-10.08147374601283	54.85273189730714	0.9573607753217258	0	0	0	-7.605760268369496	-5.128745139870185	1.959916357948458	52.26252202804474	2.590050574495359	-3.322275671701794	53.59754017733282	102.9539958080976	0	0	57.61316046281073	-21.25327251721195	32.00395575472348	60.5341908415925	89.0340454366945	0	0
29.85999999999945	-5.72133191102393	-6.604448513159911	28.8124588595925	0	0.9399999999999999	0	42.70673538542643	-10.18917167448959	-10.08142753360014	54.85275740969162	0.9573612205968349	0	0	0	42.70673538542643	-10.18917167448959	-10.08142753360014	54.85275740969162	0.9573612205968349	0	0	0	-7.627444618826946	-5.12809774139525	1.947069705467147	52.27707354623512	2.619845753388909	-3.491626906474762	53.64351041397892	103.1995674722439	0	0	57.9804125217597	-21.49784269886371	32.03732272991903	61.31149057410189	88.97627157489931	0	0
29.87999999999945	-5.71548163249571	-6.593120927203876	28.83551841657732	0	0.9399999999999999	0	42.70738232510863	-10.18898713645932	-10.08137642651403	54.85278546890621	0.9573617103225149	0	0	0	42.70738232510863	-10.18898713645932	-10.08137642651403	54.85278546890621	0.9573617103225149	0	0	0	-7.614349889150911	-5.125764842845929	1.97393997226766	52.25824884302402	2.566452717602182	-3.530644968340125	53.66906865768578	103.3825690062998	0	0	58.28830657600081	-21.63033982796606	32.27401635235484	61.78368840631631	89.4077033893147	0	0
29.89999999999945	-5.711011571688747	-6.569097744667636	28.8782384709433	0	0.9399999999999999	0	42.70794095126059	-10.18882794908768	-10.08133232086311	54.85280970868473	0.9573621333864601	0	0	0	42.70794095126059	-10.18882794908768	-10.08133232086311	54.85280970868473	0.9573621333864601	0	0	0	-7.598485069125544	-5.107705422910652	1.980840807326762	52.18797562913897	2.569224281217471	-3.483885505305018	53.66588047060068	103.4123815054201	0	0	58.64984768819114	-21.67506864525875	32.45695546080287	62.0729831537024	89.51584848424132	0	0
29.91999999999945	-5.709710857575335	-6.553993248953478	28.9165222447321	0	0.9399999999999999	0	42.70862293850399	-10.18863287720544	-10.08127833415947	54.85283917720462	0.9573626477091579	0	0	0	42.70862293850399	-10.18863287720544	-10.08127833415947	54.85283917720462	0.9573626477091579	0	0	0	-7.591085982770195	-5.093274612766439	1.974398229490919	52.17518882326841	2.521370285093278	-3.486649873707345	53.69393952654004	103.5002764075371	0	0	59.0425767868329	-21.71678886434221	32.39776437131798	62.3350066998356	89.13709312993137	0	0
29.93999999999945	-5.707183159126568	-6.556075734181628	28.9651118775305	0	0.9399999999999999	0	42.70918561345653	-10.18847188383236	-10.08123377771435	54.85286346802586	0.9573630716639666	0	0	0	42.70918561345653	-10.18847188383236	-10.08123377771435	54.85286346802586	0.9573630716639666	0	0	0	-7.595039773837898	-5.086518368886273	1.92616230474028	52.20225419598125	2.531361775276267	-3.450021388414052	53.68992777079661	103.4759768969366	0	0	59.42716753775027	-21.83442913795319	32.08146934799942	62.55333475858886	88.93342795881458	0	0
29.95999999999945	-5.705052966242174	-6.545407618169218	29.00164658863072	0	0.9399999999999999	0	42.70972514540395	-10.18831847275367	-10.08119122165138	54.85288687431306	0.9573634801807439	0	0	0	42.70972514540395	-10.18831847275367	-10.08119122165138	54.85288687431306	0.9573634801807439	0	0	0	-7.59080170826679	-5.07329710923264	1.901900786358454	52.20174920729315	2.49345662659675	-3.339051936908411	53.70252759948801	103.3797680076725	0	0	59.46728468440298	-21.8703636362339	31.94326787342114	62.88475400024466	88.49901300678285	0	0
